<?xml version="1.0" encoding="UTF-8"?>
<!DOCTYPE svg PUBLIC "-//W3C//DTD SVG 1.1//EN" "http://www.w3.org/Graphics/SVG/1.1/DTD/svg11.dtd">
<!-- Creator: CorelDRAW -->
<svg xmlns="http://www.w3.org/2000/svg" xml:space="preserve" width="24.0066in" height="23.9503in" version="1.1" style="shape-rendering:geometricPrecision; text-rendering:geometricPrecision; image-rendering:optimizeQuality; fill-rule:evenodd; clip-rule:evenodd"
viewBox="0 0 1985.73 1981.07"
 xmlns:xlink="http://www.w3.org/1999/xlink"
 xmlns:xodm="http://www.corel.com/coreldraw/odm/2003">
 <defs>
  <style type="text/css">
   <![CDATA[
    .fil2 {fill:#0084C5}
    .fil0 {fill:#025098}
    .fil1 {fill:#25135D}
   ]]>
  </style>
 </defs>
 <g id="Layer_x0020_1">
  <metadata id="CorelCorpID_0Corel-Layer"/>
  <path class="fil0" d="M969 1687.6c1.04,-1.13 2.07,-4.78 2.45,-3.89 2.46,5.87 5.08,-39.64 56.76,-41.23 69.02,-2.1 125.28,112.67 -21.13,168.22 -238.81,90.6 -683.88,-196.85 -293.26,-661.16 55.55,-66.04 147.58,-138.88 239.31,-191.34 101.86,-58.26 193.5,-83.56 331.89,-100.59 132.15,-16.26 267.22,-19.19 399.6,1.15 99.19,15.24 277.12,49.12 299.57,131.71 13.67,-146.54 -64.93,-392.1 -145.64,-520.79 -93.91,-149.73 -317.88,-148.07 -525.78,-115.4 -330.16,51.89 -649.93,250.92 -846.95,495.41 -239.94,297.77 -225.81,737.26 73.32,936.61 130.82,87.18 343.03,164.36 525.42,81.71 60.72,-27.51 168.99,-109.51 98.34,-194.36 -88.46,-106.23 -229.23,-40.69 -193.88,13.94z"/>
  <path class="fil1" d="M972.77 1711.78c-5.01,-5.41 -66.81,-52.2 8.44,-93.81 35.89,-19.85 85.37,-24.51 127.43,-10.57 68.29,22.64 132.89,89.4 89.27,181.19 -79.57,167.45 -541.7,222.3 -833.02,-115.19 -92.53,-107.19 -148.51,-284.94 -125.44,-471.51 59.23,-479.01 492.58,-802.64 907.91,-898.91 85.7,-19.87 174.06,-31.66 265.5,-33.93 109.37,-2.71 180.05,12.75 281.96,25.11 -27.76,-48.82 -172.03,-142.02 -230.05,-174.57 -475.14,-266.61 -1112.58,-71.75 -1358.67,427.99 -100.07,203.21 -136.81,434.6 -77.76,680.93 125.03,521.57 711.4,906.51 1215.36,692.02 249.46,-106.17 152.55,-388.72 -152.53,-384.02 -172.99,2.66 -231.57,164.95 -118.4,175.25z"/>
  <path class="fil2" d="M1022.33 1659.86c116.78,112.57 -223.87,163.18 -224.57,-75.44 -0.41,-139.55 162.02,-233.77 268.59,-272.19 165.99,-59.84 491.95,-42.77 633.03,111.95 60.62,66.49 65.63,103.35 59.42,199.55 51.84,-61.69 141.34,-198.58 174.29,-294.84 62.71,-183.21 57.75,-252.95 -85.48,-317.04 -347.18,-155.34 -848.26,-53.71 -1082.12,189.35 -63.52,66.02 -152.94,188.36 -158.34,319.9 -8.47,206.49 217.43,337.06 411.15,260.5 102.09,-40.34 68.01,-120.69 4.03,-121.75z"/>
 </g>
</svg>
